<?xml version="1.0" standalone="no"?>
<!DOCTYPE svg PUBLIC "-//W3C//DTD SVG 1.1//EN" "http://www.w3.org/Graphics/SVG/1.1/DTD/svg11.dtd" >
<svg xmlns="http://www.w3.org/2000/svg">
<metadata>Generated by IcoMoon</metadata>
<defs>
<font id="icomoon" horiz-adv-x="1024">
<font-face units-per-em="1024" ascent="960" descent="-64" />
<missing-glyph horiz-adv-x="1024" />
<glyph unicode="&#x20;" horiz-adv-x="512" d="" />
<glyph unicode="&#xe900;" d="M1024 448c0-282.867-229.133-512-512-512s-512 229.133-512 512c0 282.665 229.133 512 512 512 223.252 0 413.047-142.954 483.206-342.077 15.005-42.582 24.535-87.8 27.78-134.844 0.608-11.558 1.014-23.319 1.014-35.080z" />
<glyph unicode="&#xe901;" d="M78.27 176.082c90.639-144.171 250.829-240.082 433.73-240.082s343.091 95.911 433.73 240.082h-867.46z" />
<glyph unicode="&#xe902;" d="M902.539 241.375h-781.079c-6.286 0-10.341-6.691-7.3-12.166l12.369-23.116c9.733-18.25 28.591-29.402 49.274-29.402h672.393c20.683 0 39.541 11.355 49.274 29.402l12.369 23.116c2.839 5.475-1.014 12.166-7.3 12.166z" />
<glyph unicode="&#xe903;" d="M845.966 241.375h-662.66c-2.839 0-5.272 2.23-5.272 5.272v460.901c0 2.839 2.23 5.272 5.272 5.272h662.66c2.839 0 5.272-2.23 5.272-5.272v-460.901c-0.203-2.839-2.433-5.272-5.272-5.272z" />
<glyph unicode="&#xe904;" d="M209.261 662.33h610.75v-379.387h-610.75v379.387z" />
<glyph unicode="&#xe905;" d="M526.194 688.082c0-6.383-5.175-11.558-11.558-11.558s-11.558 5.175-11.558 11.558c0 6.383 5.175 11.558 11.558 11.558s11.558-5.175 11.558-11.558z" />
<glyph unicode="&#xe906;" d="M280.434 629.076h51.504v-51.504h-51.504v51.504z" />
<glyph unicode="&#xe907;" d="M362.76 629.076h122.069v-17.438h-122.069v17.438z" />
<glyph unicode="&#xe908;" d="M362.76 595.010h67.118v-17.438h-67.118v17.438z" />
<glyph unicode="&#xe909;" d="M544.444 629.076h51.504v-51.504h-51.504v51.504z" />
<glyph unicode="&#xe90a;" d="M626.566 629.076h122.069v-17.438h-122.069v17.438z" />
<glyph unicode="&#xe90b;" d="M626.566 595.010h67.118v-17.438h-67.118v17.438z" />
<glyph unicode="&#xe90c;" d="M295.642 498.288h53.126v-161.61h-53.126v161.61z" />
<glyph unicode="&#xe90d;" d="M391.756 498.288h53.126v-161.61h-53.126v161.61z" />
<glyph unicode="&#xe90e;" d="M488.073 498.288h53.126v-161.61h-53.126v161.61z" />
<glyph unicode="&#xe90f;" d="M584.187 498.288h53.126v-161.61h-53.126v161.61z" />
<glyph unicode="&#xe910;" d="M680.504 498.288h53.126v-161.61h-53.126v161.61z" />
<glyph unicode="&#xe911;" d="M295.642 431.373h53.126v-94.695h-53.126v94.695z" />
<glyph unicode="&#xe912;" d="M391.756 395.888h53.126v-59.21h-53.126v59.21z" />
<glyph unicode="&#xe913;" d="M488.073 467.466h53.126v-130.788h-53.126v130.788z" />
<glyph unicode="&#xe914;" d="M584.187 422.856h53.126v-86.381h-53.126v86.381z" />
<glyph unicode="&#xe915;" d="M680.504 453.88h53.126v-117.202h-53.126v117.202z" />
<glyph unicode="&#xe916;" d="M599.598 226.775h-175.195l-14.802 14.6h204.8z" />
</font>
</defs>
</svg>
